<svg width="450" height="431" xmlns="http://www.w3.org/2000/svg">
 <g id="Layer_1">
  <title>Layer 1</title>
  <g stroke="null">
   <g stroke="null" fill="#621ee5">
    <path stroke="null" fill="#000000" d="m86.85304,215.74196c-0.76288,-1.01995 -1.69263,-1.82992 -2.71775,-2.39989s-2.12175,-0.83996 -3.24223,-0.83996c-1.12048,-0.03 -2.21711,0.26999 -3.24223,0.80996c-1.02512,0.56997 -1.95487,1.37994 -2.71775,2.39989c-0.78672,0.98996 -1.40656,2.1599 -1.81183,3.44985c-0.40528,1.31994 -0.61984,2.69988 -0.61984,4.07982c-0.02384,1.40994 0.19072,2.78987 0.61984,4.07982s1.04896,2.45989 1.83567,3.44985a7.96015,10.01655 0 0 0 5.95998,3.14986a8.23908,10.36753 0 0 0 5.95998,-3.14986c0.81056,-0.95996 1.4304,-2.1299 1.85951,-3.41985s0.64368,-2.66988 0.64368,-4.07982s-0.21456,-2.78987 -0.64368,-4.07982c-0.45296,-1.31994 -1.0728,-2.48989 -1.88335,-3.44985zm99.77005,-24.35891c-0.1192,6.7197 0.14304,13.4694 0.76288,20.15909l-0.28608,0c-0.66752,-1.64993 -2.14559,-4.70979 -4.41038,-9.17959l-54.35501,-107.36518l-16.49722,0l0,137.06385l12.68284,0l0,-99.08555c0.14304,-6.26972 -0.07152,-12.53944 -0.596,-18.80916l0.4768,0c0.90592,2.99987 2.07407,5.87974 3.45679,8.57961l55.83309,109.31509l15.61515,0l0,-137.06385l-12.68284,0l0,96.38567zm98.67342,25.61885l-44.81904,0l0,-47.48787l39.21666,0l0,-14.45935l-39.21666,0l0,-45.53796l42.07745,0l0,-14.51935l-55.07021,0l0,137.06385l57.74028,0l0.07152,-15.05932zm9.70285,-122.00452l0,14.51935l31.23029,0l0,122.5445l12.68284,0l0,-122.5445l31.58789,0l0,-14.51935l-75.50102,0zm-124.30133,171.14232a23.93528,30.11865 0 0 0 -8.39165,7.10968c-2.43167,3.26985 -4.33886,7.10968 -5.57854,11.33949s-1.78799,8.69961 -1.64495,13.16941c-0.2384,8.27963 2.05023,16.37926 6.43678,22.55899c2.19327,2.90987 4.86334,5.15977 7.81949,6.6597s6.12686,2.1599 9.29757,1.97991c4.76798,0.20999 9.51213,-1.04995 13.82715,-3.68983l0.04768,-6.98969c-3.95743,2.90987 -8.46317,4.3498 -13.04043,4.19981c-2.45551,0.11999 -4.91102,-0.41998 -7.17581,-1.58993s-4.31502,-2.96987 -5.98382,-5.24976a20.78841,26.15883 0 0 1 -5.00638,-18.41917c-0.28608,-7.10968 1.64495,-14.06937 5.36398,-19.40913c1.76415,-2.45989 3.93359,-4.3798 6.34142,-5.69974a18.30906,23.03897 0 0 1 7.65261,-1.82992c4.17199,-0.09 8.27245,1.19995 11.91996,3.74983l0,-7.52966a29.15622,36.68835 0 0 0 -11.91996,-2.63988c-3.40911,-0.06 -6.81822,0.68997 -9.96509,2.2799zm59.43291,21.47904a16.01804,20.15609 0 0 0 -12.44444,-6.23972c-2.45551,-0.14999 -4.88718,0.35998 -7.17581,1.46993s-4.3627,2.78987 -6.12686,4.91978c-1.71647,2.39989 -3.02767,5.18977 -3.88591,8.24963s-1.21584,6.26972 -1.04896,9.50957c-0.2384,6.14972 1.45423,12.17945 4.69646,16.76925c1.62111,2.1899 3.57599,3.92982 5.76926,5.09977c2.19327,1.13995 4.55342,1.70992 6.91358,1.58993c2.40783,0.09 4.81566,-0.47998 7.05662,-1.64993s4.24351,-2.93987 5.88846,-5.18977a19.21497,24.17891 0 0 0 4.81566,-17.27922c0.28608,-6.29972 -1.3112,-12.44944 -4.45806,-17.24923zm-4.3627,30.80862a10.47526,13.18141 0 0 1 -8.51085,4.5298c-1.64495,0.09 -3.26607,-0.29999 -4.76798,-1.07995c-1.50191,-0.80996 -2.83695,-2.00991 -3.93359,-3.56984a14.60433,18.37717 0 0 1 -3.21839,-12.62943c-0.21456,-4.70979 0.92976,-9.35958 3.21839,-13.07941c1.0728,-1.55993 2.40783,-2.78987 3.90975,-3.62984c1.50191,-0.80996 3.14687,-1.19995 4.76798,-1.10995c1.62111,-0.11999 3.21839,0.26999 4.69646,1.07995s2.78927,2.03991 3.83823,3.59984a15.89646,20.0031 0 0 1 2.97999,13.01942c0.2384,4.5598 -0.81056,9.14959 -2.97999,12.86942zm27.63046,-33.74848c-1.78799,2.00991 -3.09919,4.61979 -3.74287,7.52966l0,-9.41958l-5.95998,0l0,45.11797l5.95998,0l0,-23.00897c-0.19072,-4.16981 0.66752,-8.33963 2.43167,-11.87947c0.64368,-1.28994 1.50191,-2.36989 2.55087,-3.11986s2.21711,-1.19995 3.40911,-1.22994c1.52575,-0.14999 3.05151,0.35998 4.33886,1.43994l0,-7.43967c-1.09664,-0.44998 -2.24095,-0.65997 -3.38527,-0.59997c-2.05023,-0.03 -4.02895,0.89996 -5.60238,2.60988zm43.86545,18.62916c0.28608,-5.72974 -1.0728,-11.36949 -3.81439,-15.92928c-1.35888,-1.91991 -3.02767,-3.44985 -4.91102,-4.4398s-3.90975,-1.43994 -5.93614,-1.28994c-2.24095,-0.09 -4.4819,0.47998 -6.55598,1.61993c-2.05023,1.13995 -3.88591,2.84987 -5.36398,5.00978a19.58926,24.64989 0 0 0 -4.69646,17.12923c-0.30992,6.23972 1.23968,12.41944 4.33886,17.27922c1.50191,2.06991 3.36143,3.68983 5.41166,4.76979s4.29119,1.52993 6.5083,1.40994c4.41038,0.26999 8.77309,-1.22994 12.44444,-4.28981l0,-6.7797a17.89424,22.51699 0 0 1 -11.08556,5.03977c-1.54959,0.11999 -3.12303,-0.17999 -4.57726,-0.89996s-2.78927,-1.76992 -3.88591,-3.17986a13.30267,16.73925 0 0 1 -3.02767,-11.57948l25.19879,0l-0.04768,-3.86983zm-25.19879,-2.09991c0.30992,-3.56984 1.54959,-6.92969 3.50447,-9.53957a9.20221,11.57948 0 0 1 6.8659,-3.68983c1.23968,-0.09 2.45551,0.17999 3.59983,0.77996s2.14559,1.49993 2.95615,2.66988c1.66879,2.78987 2.50319,6.20972 2.38399,9.68956l-19.31033,0.09z"/>
   </g>
  </g>
 </g>

</svg>