<svg width="1478.2010000000002" height="1478.2010000000002" xmlns="http://www.w3.org/2000/svg">

 <g>
  <title>Layer 1</title>
  <path fill="#ffffff" d="m265.747,900.102c-2.276,0 -4.553,0.217 -6.809,0.217c-45.975,2.45 -76.983,22.683 -95.113,62.195c-15.506,35.735 -13.813,82.446 0.174,118.4c16.265,35.131 42.547,53.672 86.416,60.675c9.282,1.52 15.506,6.616 33.483,27.606l22.12,25.915l40.118,0l-26.676,-26.892c-14.746,-14.745 -26.673,-27.584 -26.673,-28.712c0,-1.127 5.641,-3.599 12.469,-5.68c22.51,-6.812 41.203,-24.202 54.279,-50.854c10.583,-21.402 12.102,-28.018 13.619,-54.646c3.969,-79.26 -37.82,-128.813 -107.409,-128.247l0.002,0.023zm35.173,207.27c-19.517,9.453 -47.857,11.34 -66.356,4.553c-19.127,-7.025 -37.646,-26.889 -45.975,-49.377c-9.259,-24.591 -7.937,-69.956 2.646,-90.386c17.023,-32.528 39.534,-47.49 72.43,-47.49c48.792,0 76.549,29.884 80.171,86.048c2.863,46.885 -12.838,82.058 -42.895,96.632l-0.021,0.02zm693.025,-139.568c-16.828,0 -29.709,6.811 -38.385,20.231l-6.809,10.627l0,-27.628l-29.123,0l0,165.678l29.104,0l0,-52.956c0,-48.424 0.604,-54.084 7.371,-67.335c9.326,-18.172 25.371,-27.234 40.879,-22.897l10.408,3.036l0,-28.712l-13.445,0l0,-0.044zm-171.098,-1.519c-5.705,0 -11.756,0.76 -17.781,2.084c-38.971,10.19 -60.938,47.489 -59.594,85.873c0,32.139 6.244,48.206 21.752,65.057c31.77,26.065 60.502,28.146 99.275,14.161c6.615,-2.819 13.814,-6.072 13.814,-6.072l0,-26.065l-13.814,7.156c-31.379,13.661 -55.016,13.661 -73.949,-2.43c-12.076,-12.296 -17.391,-27.042 -19.84,-43.868l117.426,0l0,-22.339c0,-45.539 -27.41,-74.294 -67.313,-73.557l0.024,0zm-47.492,72.647s4.338,-28.407 20.428,-39.554c7.744,-5.466 16.633,-8.11 25.328,-8.11c8.719,0 17.414,2.818 24.592,8.306c14.748,11.341 17.219,39.143 17.219,39.143l-87.566,0l0,0.215l-0.001,0zm-702.111,-29.881c-31.573,-19.128 -45.582,-32.921 -43.869,-49.185c4.9,-44.997 60.503,-38.773 91.295,-21.749l0.219,-30.272s-17.024,-7.373 -41.421,-7.764c-37.429,-0.564 -61.63,11.709 -72.97,36.691c-16.656,36.865 -1.908,64.665 51.396,95.677c29.925,17.412 43.152,32.528 43.152,49.008c0,34.047 -41.05,45.931 -83.401,24.57c-8.716,-4.337 -16.09,-7.959 -16.48,-7.959c-1.519,9.651 -0.736,32.745 -0.736,32.745s13.012,5.466 32.527,9.236c48.4,9.65 92.445,-13.054 96.608,-49.919c3.622,-34.609 -8.893,-52.761 -56.318,-81.104l-0.002,0.025zm1178.454,-43.155c-5.682,0 -11.711,0.78 -18,2.103c-38.924,10.192 -60.85,47.492 -59.354,85.876c0,32.095 6.225,48.011 21.729,64.838c31.771,26.089 60.504,28.191 99.473,14.184c6.592,-2.818 13.77,-6.026 13.77,-6.026l0,-26.109l-13.791,7.197c-31.443,13.619 -55.082,13.619 -73.947,-2.471c-12.145,-12.274 -17.414,-26.847 -19.865,-43.871l117.232,0l0,-22.336c0,-45.321 -27.412,-74.099 -67.313,-73.339l0.066,-0.046zm-47.492,72.646s4.381,-28.365 20.449,-39.729c7.721,-5.485 16.611,-8.132 25.307,-8.132c8.674,0 17.414,2.819 24.594,8.327c14.746,11.342 17.219,39.338 17.219,39.338l-87.545,0l-0.024,0.196zm-533.809,-29.123c-31.573,-19.083 -45.54,-32.92 -43.848,-49.185c4.9,-45.02 60.504,-38.773 91.296,-21.749l0.218,-30.272s-17.024,-7.374 -41.421,-7.722c-37.429,-0.563 -61.63,11.711 -72.991,36.692c-16.633,36.864 -1.692,64.666 51.437,95.677c29.884,17.393 43.111,32.312 43.111,48.792c0,34.047 -41.029,46.126 -83.381,24.569c-8.674,-4.337 -16.046,-7.916 -16.48,-7.916c-1.519,9.649 -0.736,32.746 -0.736,32.746s12.858,5.27 32.31,9.237c48.445,9.672 92.51,-13.012 96.653,-49.877c3.6,-34.437 -8.891,-52.587 -56.167,-80.952l0,-0.04l-0.001,0zm752.421,-42.005c-16.828,0 -29.859,6.829 -38.383,20.254l-6.811,10.582l0,-27.583l-29.123,0l0,165.633l29.102,0l0,-52.954c0,-48.403 0.584,-54.085 7.375,-67.313c9.324,-18.15 25.369,-27.235 40.875,-22.878l10.408,3.035l0,-28.775l-13.443,0l0,-0.001zm-984.021,41.05l0,-105.523l-29.361,0l0,233.728l123.478,0l0,-27.604l-94.116,0l0,-100.601l-0.001,0zm679.015,32.896l-24.201,62.975l-23.27,-63.322l-23.637,-70.173l-30.055,0c19.475,55.212 40.658,111.376 62.02,165.829c9.26,0.216 18.541,0 27.799,0l32.682,-82.058l33.287,-83.75l-28.732,0s-12.688,33.266 -25.914,70.521l0.021,-0.022zm-611.357,-202.109c4.728,0 8.674,-1.516 11.927,-4.769c3.208,-3.211 4.9,-6.984 4.9,-11.711c0,-4.728 -1.692,-8.675 -4.9,-11.711c-3.253,-3.035 -7.005,-4.555 -11.711,-4.555c-4.769,0 -8.717,1.52 -11.927,4.728c-3.252,3.211 -4.727,7.158 -4.727,11.712c0,4.771 1.519,8.716 4.727,11.711c3.037,3.034 6.984,4.553 11.711,4.553l0,0.042zm-10.408,-26.889c2.818,-2.818 6.245,-4.121 10.625,-4.121c4.121,0 7.548,1.303 10.411,4.121c2.819,2.819 4.337,6.245 4.337,10.409c0,4.163 -1.518,7.764 -4.337,10.582c-2.862,2.817 -6.29,4.163 -10.411,4.163c-4.185,0 -7.59,-1.301 -10.408,-4.163c-2.819,-2.818 -4.337,-6.419 -4.337,-10.582c0,-4.164 1.301,-7.589 4.12,-10.409zm7.003,11.928l1.908,0c1.346,0 2.668,1.3 3.795,3.773l2.279,5.116l3.577,0l-2.818,-5.683c-1.149,-2.275 -2.276,-3.598 -3.6,-3.969c1.67,-0.39 2.992,-0.953 3.947,-2.082c0.952,-0.974 1.3,-2.298 1.3,-3.795c0,-1.734 -0.542,-3.034 -1.69,-3.989c-1.302,-1.084 -3.384,-1.669 -6.074,-1.669l-6.026,0l0,21.187l3.035,0l0,-8.891l0.367,0.002zm0,-9.846l2.647,0c1.908,0 3.253,0.39 3.99,0.953c0.716,0.564 0.911,1.303 0.911,2.646c0,2.45 -1.52,3.601 -4.337,3.601l-3.252,0l0,-7.2l0.041,0zm-485.018,7.958c0,-7.373 -0.216,-12.858 -0.39,-16.09l0.174,0c0.758,3.814 1.691,6.657 2.45,8.543l28.19,62.975l4.728,0l28.19,-63.538c0.761,-1.733 1.52,-4.337 2.452,-7.959l0.216,0c-0.563,6.29 -0.758,11.754 -0.758,16.112l0,55.581l9.648,0l0,-82.622l-12.1,0l-25.913,57.466c-0.955,2.276 -2.278,5.683 -3.969,10.193l-0.392,0c-0.563,-2.234 -1.886,-5.639 -3.772,-9.803l-25.33,-58.053l-12.858,0l0,82.621l9.281,0l0,-55.385l0.153,-0.041zm96.045,0.154l8.329,0l0,51.458l-8.329,0l0,-51.458zm4.164,-18.868c1.736,0 3.21,-0.587 4.337,-1.734c1.15,-1.129 1.91,-2.603 1.91,-4.337c0,-1.692 -0.565,-3.211 -1.887,-4.337c-1.171,-1.15 -2.668,-1.737 -4.381,-1.737c-1.69,0 -3.208,0.587 -4.338,1.737c-1.146,1.126 -1.907,2.645 -1.907,4.337c0,1.887 0.586,3.208 1.907,4.337c1.304,1.147 2.647,1.734 4.338,1.734l0.021,0zm63.54,71.455l0,-9.066c-4.555,3.405 -9.456,5.098 -14.53,5.098c-6.07,0 -10.995,-2.081 -14.595,-6.07c-3.577,-3.947 -5.485,-9.436 -5.485,-16.266c0,-7.156 1.908,-12.84 5.854,-17.177c3.795,-4.163 8.719,-6.245 14.748,-6.245c4.922,0 9.647,1.52 14.009,4.557l0,-9.65c-3.968,-2.082 -8.5,-3.037 -13.619,-3.037c-9.456,0 -16.827,3.037 -22.335,8.894c-5.466,5.854 -8.285,13.813 -8.285,23.42c0,8.543 2.45,15.722 7.548,21.209c5.312,5.637 12.102,8.5 20.428,8.5c6.438,-0.178 11.707,-1.523 16.262,-4.167zm23.831,-27.433c0,-6.788 1.518,-12.273 4.337,-16.049c2.647,-3.403 5.855,-5.116 9.65,-5.116c3.21,0 5.486,0.585 7.155,1.908l0,-9.846c-1.3,-0.563 -3.187,-0.758 -5.637,-0.758c-3.405,0 -6.439,1.146 -9.107,3.253c-2.819,2.231 -5.074,5.638 -6.397,9.975l-0.216,0l0,-12.08l-9.433,0l0,58.985l9.454,0l0,-30.272l0.194,0zm54.279,31.443c8.892,0 16.048,-2.863 21.36,-8.543c5.29,-5.641 7.936,-13.229 7.936,-22.686c0,-9.647 -2.427,-17.021 -7.372,-22.51c-4.9,-5.483 -11.711,-8.132 -20.603,-8.132s-16.048,2.647 -21.36,7.764c-5.681,5.641 -8.674,13.599 -8.674,23.813c0,8.891 2.429,16.265 7.548,21.751c5.29,5.68 12.295,8.521 21.165,8.521l0,0.022zm-13.445,-48.055c3.6,-3.795 8.329,-5.683 14.182,-5.683c6.074,0 10.627,1.888 14.01,5.683c3.404,3.969 5.097,9.63 5.097,17.197c0,7.198 -1.519,12.859 -4.729,16.654c-3.208,3.969 -7.936,6.071 -14.183,6.071c-6.071,0 -10.777,-2.104 -14.377,-6.071c-3.577,-3.99 -5.291,-9.456 -5.291,-16.654c-0.368,-7.156 1.519,-13.01 5.291,-17.197zm84.141,42.916c3.599,-3.208 5.509,-7.155 5.509,-12.102c0,-4.337 -1.52,-7.936 -4.338,-10.777c-2.3,-2.275 -5.854,-4.337 -10.994,-6.419c-4.556,-1.906 -7.374,-3.6 -8.893,-4.923c-1.517,-1.517 -2.45,-3.402 -2.45,-6.071c0,-2.45 0.955,-4.337 2.821,-5.855c1.908,-1.516 4.337,-2.253 7.59,-2.253c5.096,0 9.454,1.343 13.443,4.185l0,-9.456c-3.816,-1.906 -7.958,-2.817 -12.686,-2.817c-6.071,0 -11.189,1.671 -14.964,4.899c-3.969,3.212 -5.854,7.375 -5.854,12.274c0,4.337 1.3,7.938 3.771,10.582c2.082,2.256 5.641,4.556 10.583,6.614c4.729,2.083 7.938,3.968 9.65,5.485c1.691,1.52 2.45,3.405 2.45,5.641c0,5.506 -3.772,8.349 -11.146,8.349c-5.682,0 -10.776,-1.866 -15.333,-5.638l0,10.189c4.121,2.475 9.066,3.601 14.53,3.601c7.005,-0.368 12.49,-2.081 16.264,-5.486l0.047,-0.022zm45.019,-56.73c-8.893,0 -16.048,2.647 -21.361,7.764c-5.638,5.641 -8.674,13.599 -8.674,23.813c0,8.891 2.452,16.265 7.547,21.751c5.313,5.68 12.295,8.521 21.187,8.521c9.107,0 16.048,-2.861 21.36,-8.545c5.313,-5.637 7.958,-13.227 7.958,-22.683c0,-9.65 -2.472,-17.022 -7.374,-22.509c-5.115,-5.487 -11.927,-8.133 -20.601,-8.133l-0.042,0.021zm18.345,31.012c0,7.198 -1.518,12.859 -4.727,16.654c-3.21,3.969 -7.938,6.071 -14.184,6.071c-6.074,0 -10.778,-2.104 -14.379,-6.071c-3.577,-3.99 -5.29,-9.456 -5.29,-16.654c0,-7.59 1.888,-13.444 5.683,-17.393c3.576,-3.773 8.306,-5.682 14.182,-5.682c5.854,0 10.561,1.907 13.964,5.682c3.037,4.163 4.729,9.824 4.729,17.393l0.022,0zm25.547,29.513l9.433,0l0,-51.068l13.813,0l0,-7.938l-13.814,0l0,-9.108c0,-8.282 3.208,-12.446 9.845,-12.446c2.234,0 4.511,0.563 6.203,1.518l0,-8.521c-1.692,-0.759 -3.969,-0.932 -6.812,-0.932c-5.095,0 -9.258,1.519 -12.664,4.727c-3.969,3.773 -6.071,8.674 -6.071,15.312l0,9.672l-9.978,0l0,7.936l9.978,0l0,50.876l0.067,-0.028zm38.75,-16.091c0,11.538 5.098,17.414 15.506,17.414c3.774,0 6.614,-0.606 8.891,-1.951l0,-8.11c-1.734,1.302 -3.795,1.91 -6.071,1.91c-3.208,0 -5.464,-0.762 -6.788,-2.475c-1.345,-1.689 -2.103,-4.554 -2.103,-8.501l0,-33.286l14.961,0l0,-7.938l-14.961,0l0,-17.39c-3.253,1.127 -6.44,2.082 -9.456,3.034l0,14.355l-10.192,0l0,7.938l10.192,0l0,34.979l0.021,0.021zm1014.88,108.73c-3.209,-3.034 -7.004,-4.553 -11.709,-4.553c-4.77,0 -8.719,1.519 -11.928,4.771c-3.209,3.188 -4.729,7.155 -4.729,11.711c0,4.728 1.52,8.675 4.705,11.709c3.211,3.036 7.156,4.556 11.928,4.556c4.705,0 8.674,-1.52 11.928,-4.729c3.188,-3.253 4.879,-7.004 4.879,-11.709c-0.174,-4.771 -1.887,-8.719 -5.096,-11.754l0.022,-0.002zm-1.517,22.338c-2.82,2.818 -6.246,4.119 -10.41,4.119c-4.119,0 -7.545,-1.301 -10.408,-4.119c-2.818,-2.863 -4.338,-6.441 -4.338,-10.627c0,-4.121 1.301,-7.545 4.164,-10.408c2.818,-2.817 6.225,-4.121 10.582,-4.121c4.121,0 7.549,1.304 10.41,4.121c2.818,2.863 4.336,6.287 4.336,10.408c0,4.382 -1.301,7.764 -4.336,10.627zm-8.502,-9.651c1.691,-0.39 3.037,-1.149 3.969,-2.081c0.955,-0.977 1.303,-2.301 1.303,-3.815c0,-1.692 -0.543,-3.037 -1.691,-3.969c-1.301,-1.085 -3.404,-1.671 -6.07,-1.671l-6.029,0l0,21.164l3.037,0l0,-8.891l1.885,0c1.303,0 2.604,1.3 3.773,3.773l2.254,5.096l3.602,0l-2.818,-5.683c-0.977,-2.472 -2.105,-3.601 -3.252,-3.97l0.037,0.047zm-2.082,-1.907l-3.252,0l0,-7.155l2.668,0c1.887,0 3.209,0.345 3.969,0.932c0.758,0.563 0.932,1.301 0.932,2.646c0,2.45 -1.518,3.579 -4.336,3.579l0.019,-0.002zm-527.584,-164.875l2.646,0l0,-21.187l7.002,0l0,-2.646l-16.652,0l0,2.646l7.006,0l0,21.187l-0.002,0zm16.047,-15.917c0,-2.062 0,-3.753 -0.152,-4.705c0.174,1.126 0.564,1.887 0.738,2.45l8.133,18.172l1.301,0l8.152,-18.347c0.219,-0.563 0.393,-1.301 0.76,-2.275c-0.174,1.887 -0.174,3.401 -0.174,4.553l0,16.048l2.82,0l0,-23.812l-3.406,0l-7.371,16.438c-0.174,0.587 -0.762,1.734 -1.129,3.037l-0.217,0c-0.152,-0.761 -0.541,-1.519 -1.084,-2.818l-7.373,-16.655l-3.816,0l0,23.854l2.666,0l0,-15.917l0.152,-0.023z" id="svg_5"/>
  <g stroke="null">
   <g stroke="null" fill="#621ee5">
    <path stroke="#fff" fill="#000" d="m286.44014,756.96588c-2.59583,-3.23416 -5.75949,-5.80247 -9.24763,-7.6098s-7.21964,-2.66343 -11.03226,-2.66343c-3.81262,-0.09512 -7.54412,0.8561 -11.03226,2.56831c-3.48814,1.80733 -6.65181,4.37563 -9.24763,7.6098c-2.67695,3.13904 -4.78606,6.84882 -6.16509,10.93908c-1.37903,4.18539 -2.10911,8.56102 -2.10911,12.93666c-0.08112,4.47076 0.64896,8.84639 2.10911,12.93666s3.56926,7.80004 6.24621,10.93908a27.08583,31.7614 0 0 0 20.27989,9.98786a28.03493,32.87433 0 0 0 20.27989,-9.98786c2.75807,-3.04392 4.86717,-6.7537 6.32733,-10.84396s2.19023,-8.4659 2.19023,-12.93666s-0.73008,-8.84639 -2.19023,-12.93666c-1.54127,-4.18539 -3.65038,-7.89517 -6.40845,-10.93908zm339.48543,-77.23945c-0.4056,21.30744 0.48672,42.70999 2.59583,63.92231l-0.97343,0c-2.27135,-5.23174 -7.30076,-14.93423 -15.00712,-29.10748l-184.95264,-340.44335l-56.13475,0l0,434.6146l43.15562,0l0,-314.18955c0.48672,-19.8806 -0.24336,-39.7612 -2.02799,-59.64179l1.62239,0c3.08254,9.51225 7.0574,18.64401 11.76234,27.20503l189.98205,346.62631l53.13332,0l0,-434.6146l-43.15562,0l0,305.62852zm335.75393,81.2346l-152.50481,0l0,-150.57888l133.4417,0l0,-45.84903l-133.4417,0l0,-144.39592l143.17605,0l0,-46.03928l-187.38622,0l0,434.6146l196.47162,0l0.24336,-47.75148zm33.01567,-386.86312l0,46.03928l106.26665,0l0,388.57532l43.15562,0l0,-388.57532l107.48344,0l0,-46.03928l-256.9057,0zm-422.95748,542.67374a81.44406,95.50297 0 0 0 -28.55409,22.54403c-8.2742,10.36835 -14.76376,22.54403 -18.98198,35.9563s-6.08397,27.58552 -5.59725,41.75877c-0.8112,26.2538 6.97628,51.93687 21.90229,71.5321c7.463,9.22688 16.54839,16.36107 26.60722,21.11719s20.84773,6.84882 31.63664,6.27808c16.22392,0.66586 32.36671,-3.32929 47.04935,-11.70006l0.16224,-22.16354c-13.46585,9.22688 -28.79745,13.79276 -44.37241,13.31715c-8.35532,0.38049 -16.71063,-1.33171 -24.41699,-5.04149s-14.68264,-9.41713 -20.36101,-16.64643a70.73627,82.9468 0 0 1 -17.03511,-58.4052c-0.97343,-22.54403 5.59725,-44.61244 18.2519,-61.54424c6.00285,-7.80004 13.38473,-13.88788 21.57781,-18.07327a62.29984,73.05406 0 0 1 26.03938,-5.80247c14.19593,-0.28537 28.14849,3.8049 40.55979,11.89031l0,-23.87574a99.20924,116.33479 0 0 0 -40.55979,-8.37078c-11.6001,-0.19024 -23.2002,2.18782 -33.90798,7.22931zm202.23111,68.10769a54.50424,63.91279 0 0 0 -42.34442,-19.78548c-8.35532,-0.47561 -16.62951,1.14147 -24.41699,4.661s-14.84488,8.84639 -20.84773,15.60009c-5.84061,7.6098 -10.30219,16.45619 -13.22249,26.15868s-4.1371,19.8806 -3.56926,30.15383c-0.8112,19.50011 4.94829,38.61973 15.98056,53.17347c5.51613,6.94394 12.16794,12.46104 19.63094,16.17082c7.463,3.61465 15.49384,5.42198 23.52468,5.04149c8.19308,0.28537 16.38615,-1.52196 24.01139,-5.23174s14.43928,-9.322 20.03654,-16.45619a65.38238,76.66872 0 0 0 16.38615,-54.79055c0.97343,-19.97572 -4.46158,-39.47583 -15.16936,-54.69542zm-14.84488,97.69078a35.64394,41.79682 0 0 1 -28.95969,14.36349c-5.59725,0.28537 -11.11338,-0.95122 -16.22392,-3.42441c-5.11053,-2.56831 -9.65323,-6.37321 -13.38473,-11.31957a49.69385,58.27203 0 0 1 -10.95114,-40.04656c-0.73008,-14.93423 3.16366,-29.67821 10.95114,-41.4734c3.65038,-4.94637 8.19308,-8.84639 13.30361,-11.50982c5.11053,-2.56831 10.70778,-3.8049 16.22392,-3.51953c5.51613,-0.38049 10.95114,0.8561 15.98056,3.42441s9.49099,6.46833 13.06025,11.4147a54.09053,63.42767 0 0 1 10.13995,41.28316c0.8112,14.45862 -2.75807,29.01236 -10.13995,40.80754zm94.01759,-107.01279c-6.08397,6.37321 -10.54555,14.64886 -12.73577,23.87574l0,-29.86846l-20.27989,0l0,143.06421l20.27989,0l0,-72.95894c-0.64896,-13.22202 2.27135,-26.44405 8.2742,-37.6685c2.19023,-4.09027 5.11053,-7.51468 8.67979,-9.89274s7.54412,-3.8049 11.6001,-3.90002c5.19165,-0.47561 10.38331,1.14147 14.76376,4.56588l0,-23.59037c-3.7315,-1.42684 -7.62524,-2.09269 -11.51898,-1.90245c-6.97628,-0.09512 -13.70921,2.85367 -19.0631,8.27566zm149.26002,59.07106c0.97343,-18.16839 -3.65038,-36.05142 -12.97913,-50.51004c-4.62382,-6.08784 -10.30219,-10.93908 -16.71063,-14.07813s-13.30361,-4.56588 -20.19877,-4.09027c-7.62524,-0.28537 -15.25048,1.52196 -22.30788,5.13661c-6.97628,3.61465 -13.22249,9.03664 -18.2519,15.88545a66.65596,78.16214 0 0 0 -15.98056,54.31493c-1.05455,19.78548 4.21822,39.38071 14.76376,54.79055c5.11053,6.56345 11.43786,11.70006 18.41414,15.12447s14.60152,4.85125 22.14564,4.47076c15.00712,0.8561 29.852,-3.90002 42.34442,-13.60251l0,-21.49768a60.88835,71.39893 0 0 1 -37.7206,15.98058c-5.27277,0.38049 -10.62666,-0.57073 -15.57496,-2.85367s-9.49099,-5.61223 -13.22249,-10.08298a45.26472,53.07834 0 0 1 -10.30219,-36.71728l85.74339,0l-0.16224,-12.2708zm-85.74339,-6.65857c1.05455,-11.31957 5.27277,-21.97329 11.92458,-30.24895a31.31216,36.71728 0 0 1 23.36244,-11.70006c4.21822,-0.28537 8.35532,0.57073 12.24906,2.47318s7.30076,4.75612 10.05883,8.4659c5.67837,8.84639 8.51756,19.69035 8.11196,30.72456l-65.70686,0.28537z"/>
   </g>
  </g>
 </g>
</svg>